General
------------------------------------------------------------------
Format                                   : MPEG-4
Format profile                           : Base Media / Version 2
Codec ID                                 : mp42
File size                                : 123 MiB
Duration                                 : 43mn 54s
Overall bit rate mode                    : Variable
Overall bit rate                         : 393 Kbps

Video
------------------------------------------------------------------
ID                                       : 1
Format                                   : AVC
Format/Info                              : Advanced Video Codec
Format profile                           : Baseline@L2.2
Format settings, CABAC                   : No
Format settings, ReFrames                : 1 frame
Codec ID                                 : avc1
Codec ID/Info                            : Advanced Video Coding
Duration                                 : 43mn 54s
Bit rate                                 : 294 Kbps
Maximum bit rate                         : 1 686 Kbps
Width                                    : 608 pixels
Height                                   : 336 pixels
Display aspect ratio                     : 16:9
Frame rate mode                          : Constant
Frame rate                               : 25.000 fps
Color space                              : YUV
Chroma subsampling                       : 4:2:0
Bit depth                                : 8 bits
Scan type                                : Progressive
Bits/(Pixel*Frame)                       : 0.058
Stream size                              : 92.5 MiB (75%)

Audio
------------------------------------------------------------------
ID                                       : 2
Format                                   : AAC
Format/Info                              : Advanced Audio Codec
Format profile                           : LC
Codec ID                                 : 40
Duration                                 : 43mn 54s
Bit rate mode                            : Variable
Bit rate                                 : 96.0 Kbps
Maximum bit rate                         : 104 Kbps
Channel(s)                               : 2 channels
Channel positions                        : Front: L R
Sampling rate                            : 44.1 KHz
Compression mode                         : Lossy
Stream size                              : 30.1 MiB (24%)

------------------------------------------------------------------
 
http://www.crimeandinvestigation.co.uk/shows/born-to-kill/

------------------------------------------------------------------

SCREENS
------------------------------------------------------------------
 
http://share.pho.to/2SU24/original 
http://share.pho.to/2SU26/original 
http://share.pho.to/2SU2D/original 
http://share.pho.to/2SU2E/original 
http://share.pho.to/2SU2j/original 
http://share.pho.to/2SU2k/original 
http://share.pho.to/2SU2o/original 
http://share.pho.to/2SU2s/original

------------------------------------------------------------------

Enjoy ;)